<svg xmlns="http://www.w3.org/2000/svg" width="90" height="35" viewBox="0 0 90 35">
    <defs>
        <style>
            .cls-1{fill:none}.cls-2{fill:#0e182f}.cls-3{fill:#32bbaf}
        </style>
    </defs>
    <g id="Group_2660" data-name="Group 2660" transform="translate(-1292 -318)">
        <path id="Rectangle_681" d="M0 0h90v35H0z" class="cls-1" data-name="Rectangle 681" transform="translate(1292 318)"/>
        <g id="dlt_logo_123-01" data-name="dlt logo 123-01" transform="translate(1283.1 294.31)">
            <path id="Path_4499" d="M23.562 25.691a18.842 18.842 0 0 1 6.116.953 13.7 13.7 0 0 1 4.907 2.849 12.837 12.837 0 0 1 3.232 4.756 17.82 17.82 0 0 1 1.163 6.7 19.385 19.385 0 0 1-.953 6.221 13.154 13.154 0 0 1-2.884 4.918 13.483 13.483 0 0 1-4.8 3.267 17.706 17.706 0 0 1-6.779 1.186H8.9v-30.85zm-.523 25.139a10.592 10.592 0 0 0 3.139-.477 6.86 6.86 0 0 0 2.709-1.581 7.911 7.911 0 0 0 1.908-2.872 11.521 11.521 0 0 0 .721-4.325 16.548 16.548 0 0 0-.5-4.209 8.229 8.229 0 0 0-1.639-3.221 7.215 7.215 0 0 0-3.023-2.058 13.154 13.154 0 0 0-4.639-.709h-5.339v19.44h6.663z" class="cls-2" data-name="Path 4499"/>
            <path id="Path_4500" d="M274.076 25.7v25.139h16.558v5.709H266.6V25.7z" class="cls-2" data-name="Path 4500" transform="translate(-227.736 -.009)"/>
            <path id="Path_4501" d="M623 25.7h6.907v5.709H623" class="cls-3" data-name="Path 4501" transform="translate(-542.696 -.009)"/>
            <path id="Path_4502" d="M400.485 25.7H376.3v5.709h13.43v25.139h7.477V31.409h6.825V25.7z" class="cls-2" data-name="Path 4502" transform="translate(-324.681 -.009)"/>
            <g id="Group_2659" data-name="Group 2659" transform="translate(73.735 48.585)">
                <path id="Path_4503" d="M574.069 222.7l-2.8 6.965h-3.7V222.7H566.5v7.93h5.523l.919-2.36h3.209l.919 2.36h1.151l-3.121-7.93zm1.709 4.616H573.3l1.256-3.221z" class="cls-2" data-name="Path 4503" transform="translate(-566.5 -222.687)"/>
                <path id="Path_4504" d="M676.446 226.409c.023-.012.058-.035.081-.046a1.768 1.768 0 0 0 .453-.43 2 2 0 0 0 .407-1.186 2.039 2.039 0 0 0-.221-.977 1.837 1.837 0 0 0-.593-.64 2.394 2.394 0 0 0-.837-.337 5.3 5.3 0 0 0-.953-.093H671.4v7.942h3.442a5.342 5.342 0 0 0 1.046-.116 3.093 3.093 0 0 0 .791-.3 1.822 1.822 0 0 0 .535-.453 2.189 2.189 0 0 0 .442-1.023 2.691 2.691 0 0 0 .035-.43 2.038 2.038 0 0 0-.477-1.372 2.181 2.181 0 0 0-.768-.539zm-3.977.581h2.314a2.4 2.4 0 0 1 1.384.337 1.077 1.077 0 0 1 .442.965 1.338 1.338 0 0 1-.116.6l-.035.07a1.181 1.181 0 0 1-.372.419 1.492 1.492 0 0 1-.57.221 3.9 3.9 0 0 1-.732.07h-2.3v-2.686zm3.488-1.3a1.241 1.241 0 0 1-.477.244 2.09 2.09 0 0 1-.709.093h-2.3v-2.36h2.314a1.839 1.839 0 0 1 1.174.314 1.144 1.144 0 0 1 .36.93 1.1 1.1 0 0 1-.093.43 1.161 1.161 0 0 1-.268.347z" class="cls-2" data-name="Path 4504" transform="translate(-659.203 -222.687)"/>
                <path id="Path_4505" d="M734.884 227.44a1.865 1.865 0 0 0-.477-.6 2.45 2.45 0 0 0-.674-.4 4.487 4.487 0 0 0-.791-.256l-1.849-.442a2.87 2.87 0 0 1-.419-.128 1.068 1.068 0 0 1-.314-.186.753.753 0 0 1-.267-.64 1.044 1.044 0 0 1 .14-.593 1.14 1.14 0 0 1 .36-.384 1.5 1.5 0 0 1 .547-.221 3.349 3.349 0 0 1 .686-.07 2.514 2.514 0 0 1 .721.1 1.878 1.878 0 0 1 .593.291 1.444 1.444 0 0 1 .581 1.116v.174h1.058v-.174a2.139 2.139 0 0 0-.256-1.07 2.22 2.22 0 0 0-.663-.767 2.884 2.884 0 0 0-.953-.453 4.038 4.038 0 0 0-1.116-.151 3.493 3.493 0 0 0-1.372.244 2.4 2.4 0 0 0-.86.581 2.012 2.012 0 0 0-.442.744 2.641 2.641 0 0 0-.116.674 1.7 1.7 0 0 0 .163.791 1.805 1.805 0 0 0 .419.558 2.079 2.079 0 0 0 .593.36q.331.122.663.209l1.686.4c.174.047.349.093.523.151a2.174 2.174 0 0 1 .465.233 1.05 1.05 0 0 1 .314.326.81.81 0 0 1 .116.442.952.952 0 0 1-.174.581 1.307 1.307 0 0 1-.453.419 1.945 1.945 0 0 1-.6.244 3.6 3.6 0 0 1-.6.081 5.172 5.172 0 0 1-.942-.093 2.1 2.1 0 0 1-.733-.291 1.466 1.466 0 0 1-.465-.535 1.7 1.7 0 0 1-.163-.86l.012-.186h-1.07l-.012.163a2.7 2.7 0 0 0 .2 1.244 2.228 2.228 0 0 0 .674.86 2.919 2.919 0 0 0 1.035.488 5.271 5.271 0 0 0 1.279.151h.093a5.02 5.02 0 0 0 1.1-.116 3.13 3.13 0 0 0 .849-.326 1.954 1.954 0 0 0 .558-.465 2.255 2.255 0 0 0 .314-.5 1.692 1.692 0 0 0 .14-.488c.012-.116.023-.233.023-.349a1.5 1.5 0 0 0-.124-.881z" class="cls-2" data-name="Path 4505" transform="translate(-709.862 -222.591)"/>
            </g>
        </g>
    </g>
</svg>
